<?xml version="1.0" encoding="UTF-8"?>
<svg width="16px" height="16px" viewBox="0 0 16 16" version="1.1" xmlns="http://www.w3.org/2000/svg" xmlns:xlink="http://www.w3.org/1999/xlink">
    <title>项目统计-153</title>
    <g id="页面1" stroke="none" stroke-width="1" fill="none" fill-rule="evenodd">
        <g id="切图" transform="translate(-927.000000, -496.000000)" fill="#19203D" fill-rule="nonzero">
            <g id="项目统计-153" transform="translate(927.000000, 496.000000)">
                <rect id="矩形" opacity="0" x="0" y="0" width="16" height="16"></rect>
                <path d="M4.43635937,12.5090937 C4.2181875,12.5090937 4,12.2909062 4,12.0727344 L4,9.30909375 C4,9.09090625 4.2181875,8.87273437 4.43635937,8.87273437 C4.65453125,8.87273437 4.87273437,9.09090625 4.87273437,9.30909375 L4.87273437,12.0727344 C4.87273437,12.3636406 4.65454687,12.5090937 4.43635937,12.5090937 Z M9.23635937,12.5090937 C9.0181875,12.5090937 8.8,12.2909062 8.8,12.0727344 L8.8,9.30909375 C8.8,9.09090625 9.0181875,8.87273437 9.23635937,8.87273437 C9.45453125,8.87273437 9.67273437,9.09090625 9.67273437,9.30909375 L9.67273437,12.0727344 C9.67273437,12.3636406 9.45454687,12.5090937 9.23635937,12.5090937 Z M6.83635937,12.5090937 C6.6181875,12.5090937 6.4,12.2909062 6.4,12.0727344 L6.4,7.2 C6.4,6.9818125 6.6181875,6.76364062 6.83635937,6.76364062 C7.05453125,6.76364062 7.27273437,6.9818125 7.27273437,7.2 L7.27273437,12.0727344 C7.27273437,12.3636406 7.05454687,12.5090937 6.83635937,12.5090937 Z M11.6363594,12.5090937 C11.4181875,12.5090937 11.2,12.2909062 11.2,12.0727344 L11.2,7.2 C11.2,6.9818125 11.4181875,6.76364062 11.6363594,6.76364062 C11.8545312,6.76364062 12.0727344,6.9818125 12.0727344,7.2 L12.0727344,12.0727344 C12.0727344,12.3636406 11.9272656,12.5090937 11.6363594,12.5090937 Z" id="形状"></path>
                <path d="M4.29090625,7.27273437 C4.2181875,7.27273437 4.07273438,7.2 4,7.12726562 C3.85453125,6.9818125 3.85453125,6.76364062 4,6.6181875 L6.6181875,4.43635937 C6.76364063,4.36364062 6.9818125,4.36364062 7.05454688,4.43635937 L9.30907813,6.03635937 L11.6363594,4.29090625 C11.7818281,4.14545312 12,4.2181875 12.1454531,4.36364062 C12.2909219,4.50909375 12.2181875,4.72726562 12.0727344,4.87273437 L9.52726563,6.76364062 C9.3818125,6.83635937 9.23635938,6.83635937 9.09090625,6.76364062 L6.90909375,5.16364062 L4.50909375,7.2 C4.43635938,7.27273437 4.363625,7.27273437 4.29090625,7.27273437 L4.29090625,7.27273437 Z" id="路径"></path>
                <path d="M3.636375,6.90909375 C3.636375,7.27058569 3.92942212,7.56363281 4.29091406,7.56363281 C4.652406,7.56363281 4.94545313,7.27058569 4.94545313,6.90909375 C4.94545313,6.54759749 4.65240251,6.25454687 4.29090625,6.25454687 C3.92940999,6.25454687 3.63635938,6.54759749 3.63635938,6.90909375 L3.636375,6.90909375 Z M6.25454687,4.87273438 C6.25454687,5.23423063 6.54759749,5.52728125 6.90909375,5.52728125 C7.27059001,5.52728125 7.56364062,5.23423063 7.56364062,4.87273438 C7.56364062,4.51123812 7.27059001,4.2181875 6.90909375,4.2181875 C6.54759749,4.2181875 6.25454687,4.51123812 6.25454687,4.87273438 Z M8.65454688,6.32726562 C8.65454688,6.68876188 8.94759749,6.9818125 9.30909375,6.9818125 C9.67059001,6.9818125 9.96364063,6.68876188 9.96364063,6.32726562 C9.96364063,5.96576937 9.67059001,5.67271875 9.30909375,5.67271875 C8.94759749,5.67271875 8.65454688,5.96576937 8.65454688,6.32726562 L8.65454688,6.32726562 Z M11.1272812,4.50909375 C11.1272812,4.87058569 11.4203284,5.16363281 11.7818203,5.16363281 C12.1433123,5.16363281 12.4363594,4.87058569 12.4363594,4.50909375 C12.4363594,4.14759749 12.1433088,3.85454688 11.7818125,3.85454688 C11.4203162,3.85454688 11.1272656,4.14759749 11.1272656,4.50909375 L11.1272812,4.50909375 Z" id="形状"></path>
                <path d="M13.5272656,14.6909062 L2.6181875,14.6909062 C1.96364063,14.6909062 1.45454687,14.1818125 1.45454687,13.5272656 L1.45454687,2.4 C1.45454687,1.74546875 1.96364063,1.23635937 2.6181875,1.23635937 L13.5272656,1.23635937 C14.1818125,1.23635937 14.6909062,1.74545313 14.6909062,2.4 L14.6909062,13.5272656 C14.6909062,14.1818125 14.1090937,14.6909062 13.5272656,14.6909062 Z M2.6181875,2.1818125 C2.47271875,2.1818125 2.4,2.32728125 2.4,2.4 L2.4,13.5272656 C2.4,13.6727344 2.47273437,13.7454531 2.6181875,13.7454531 L13.5272656,13.7454531 C13.6727344,13.7454531 13.7454531,13.6727344 13.7454531,13.5272656 L13.7454531,2.4 C13.7454531,2.25453125 13.6727344,2.1818125 13.5272656,2.1818125 L2.6181875,2.1818125 Z" id="形状"></path>
            </g>
        </g>
    </g>
</svg>