<?xml version="1.0" encoding="UTF-8"?>
<svg width="16px" height="16px" viewBox="0 0 16 16" version="1.1" xmlns="http://www.w3.org/2000/svg" xmlns:xlink="http://www.w3.org/1999/xlink">
    <title>业务</title>
    <style>
        .icon {
            color: var(--skin-color); /* 使用外部CSS变量设置颜色 */
        }
    </style>
    <g id="页面1" stroke="none" stroke-width="1" fill="none" fill-rule="evenodd">
        <g id="切图" transform="translate(-927.000000, -144.000000)" fill="#45b681" fill-rule="nonzero">
            <g id="业务" transform="translate(927.000000, 144.000000)">
                <rect id="矩形" opacity="0" x="0" y="0" width="16" height="16"></rect>
                <path d="M6.22221875,6.22221875 L11.5555625,6.22221875 L11.5555625,7.111125 L6.22221875,7.111125 L6.22221875,6.22221875 Z M6.22221875,3.5555625 L11.5555625,3.5555625 L11.5555625,4.4444375 L6.22221875,4.4444375 L6.22221875,3.5555625 L6.22221875,3.5555625 Z M5.33332813,0.888890625 L12.4444375,0.888890625 L12.4444375,1.77778125 L5.33332813,1.77778125 L5.33332813,0.888875 L5.33332813,0.888890625 Z M8.88890625,10.6666719 L8.88890625,8.88889063 L9.77779687,8.88889063 L9.77779687,11.5555625 L6.22221875,11.5555625 L6.22221875,8.88889063 L7.111125,8.88889063 L7.111125,10.6666719 L8.88889063,10.6666719 L8.88890625,10.6666719 Z M5.33332813,8.88889063 L6.22223438,8.88889063 L6.22223438,9.77778125 L1.77776563,9.77778125 L1.77776563,8.888875 L2.66665625,8.888875 L2.66665625,2.6666875 L3.55554688,2.6666875 L3.55554688,8.88890625 L4.44442187,8.88890625 L4.44442187,3.5555625 L3.55554687,3.5555625 L3.55554687,2.66665625 L4.44442187,2.66665625 L4.44442187,0.88890625 L5.33332812,0.88890625 L5.33332812,8.88890625 L5.33332813,8.88889063 Z M12.4444375,8.88889063 L12.4444375,0.888890625 L13.3333437,0.888890625 L13.3333437,8.88889063 L14.2222187,8.88889063 L14.2222187,9.77778125 L9.77778125,9.77778125 L9.77778125,8.888875 L12.4444375,8.888875 L12.4444375,8.88889063 Z M13.3333438,14.2222188 L13.3333438,9.77778125 L14.2222187,9.77778125 L14.2222187,15.1110938 L1.77778125,15.1110938 L1.77778125,9.77778125 L2.66667188,9.77778125 L2.66667188,14.2222188 L13.3333281,14.2222188 L13.3333438,14.2222188 Z" id="形状"></path>
            </g>
        </g>
    </g>
</svg>