<?xml version="1.0" encoding="UTF-8"?>
<svg width="18px" height="18px" viewBox="0 0 18 18" version="1.1" xmlns="http://www.w3.org/2000/svg" xmlns:xlink="http://www.w3.org/1999/xlink">
    <title>客户</title>
    <g id="页面1" stroke="none" stroke-width="1" fill="none" fill-rule="evenodd">
        <g id="切图" transform="translate(-926.000000, -363.000000)" fill="#1BA3FF" fill-rule="nonzero">
            <g id="客户" transform="translate(926.000000, 363.000000)">
                <rect id="矩形" opacity="0" x="0" y="0" width="18" height="18"></rect>
                <path d="M13.8904277,3.13147266 L9,3.13147266 L9,3.13243945 L4.10957227,3.13243945 C3.80677148,3.13194727 3.62529492,3.02925586 3.62051367,3.08276367 L3.62051367,2.64243164 C3.62051367,2.37260742 3.84020508,2.1534082 4.10957227,2.1534082 L14.8685273,2.1534082 C15.1388262,2.1534082 15.3575684,1.93468359 15.3575684,1.66434961 C15.3575684,1.39401563 15.1388437,1.17530859 14.8685273,1.17530859 L4.10957227,1.17530859 C3.3340957,1.17530859 2.70379687,1.7818418 2.6523457,2.54453906 L2.64243164,2.54453906 L2.64243164,15.3575859 C2.64243164,16.1666016 3.30052148,16.824709 4.10957227,16.824709 L13.8904102,16.824709 C14.6994434,16.824709 15.3575684,16.1666191 15.3575684,15.3575684 L15.3575684,4.35455859 C15.3575684,3.68020898 14.6994258,3.13147266 13.8904102,3.13147266 L13.8904277,3.13147266 Z M14.3794863,15.3575508 C14.3794863,15.627375 14.1597773,15.8466094 13.8904102,15.8466094 L4.10958984,15.8466094 C3.84024023,15.8466094 3.62053125,15.6273926 3.62053125,15.3575508 L3.62053125,4.05172266 C3.77305664,4.08735352 3.93532031,4.11052148 4.10958984,4.11052148 L9,4.11052148 L9,4.10957227 L13.8904277,4.10957227 C14.1893965,4.10957227 14.3794863,4.2705 14.3794863,4.35455859 L14.3794863,15.3575508 L14.3794863,15.3575508 Z" id="形状"></path>
                <path d="M10.6809082,10.2327539 C11.1509121,9.81773438 11.4538184,9.21779297 11.4538184,8.54295117 C11.4538184,7.29502734 10.4384707,6.28017188 9.19103906,6.28017188 C7.94360742,6.28017188 6.92824219,7.29502734 6.92824219,8.54295117 C6.92824219,9.18319922 7.19801367,9.75928711 7.62676172,10.1713887 C6.46366992,10.7253809 5.65212305,11.9030273 5.65212305,13.2748066 C5.65212305,13.545123 5.87086523,13.7638828 6.14118164,13.7638828 C6.41149805,13.7638828 6.63024023,13.5451406 6.63024023,13.2748242 C6.63024023,11.9141895 7.73727539,10.8071543 9.09741797,10.8071543 C10.4575605,10.8071543 11.5645957,11.914207 11.5645957,13.2748418 C11.5645957,13.5451406 11.7833203,13.7638828 12.0536543,13.7638828 C12.3239883,13.7638828 12.5426953,13.5451582 12.5426953,13.2748418 C12.5426953,11.9488887 11.7815977,10.8086484 10.6808906,10.2327715 L10.6809082,10.2327539 Z M9.19103906,7.25825391 C9.89977148,7.25825391 10.4757187,7.83469336 10.4757187,8.54295117 C10.4757187,9.25170117 9.89975391,9.82812305 9.19103906,9.82812305 C8.48232422,9.82812305 7.9063418,9.25168359 7.9063418,8.54295117 C7.9063418,7.83469336 8.48228906,7.25825391 9.19103906,7.25825391 L9.19103906,7.25825391 Z" id="形状"></path>
            </g>
        </g>
    </g>
</svg>