<?xml version="1.0" encoding="UTF-8"?>
<svg width="16px" height="16px" viewBox="0 0 16 16" version="1.1" xmlns="http://www.w3.org/2000/svg" xmlns:xlink="http://www.w3.org/1999/xlink">
    <title>劳务信息备份 4</title>
    <g id="页面1" stroke="none" stroke-width="1" fill="none" fill-rule="evenodd">
        <g id="切图" transform="translate(-300.000000, -309.000000)" fill="#1BA3FF" fill-rule="nonzero">
            <g id="劳务信息备份-4" transform="translate(300.000000, 309.000000)">
                <rect id="矩形" opacity="0" x="0" y="0" width="16" height="16"></rect>
                <path d="M2.1375,0.4625 L14.1609375,0.4625 C14.4109375,0.4625 14.6140625,0.665625 14.6140625,0.915625 L14.6140625,15.3828125 C14.6140625,15.6328125 14.4109375,15.8359375 14.1609375,15.8359375 L2.1375,15.8359375 C1.8875,15.8359375 1.684375,15.6328125 1.684375,15.3828125 L1.684375,0.915625 C1.684375,0.665625 1.8875,0.4625 2.1375,0.4625 Z M2.4109375,1.165625 L2.4109375,14.7 C2.4109375,14.95 2.6140625,15.153125 2.8640625,15.153125 C5.0203125,15.1515625 7.175,15.1703125 9.3296875,15.1359375 C10.7140625,15.1296875 12.0984375,15.1625 13.484375,15.15625 C13.734375,15.1546875 13.9359375,14.953125 13.9359375,14.703125 C13.9359375,13.790625 13.934375,12.878125 13.9359375,11.965625 C13.90625,10.996875 13.90625,10.025 13.9359375,9.05625 C13.934375,6.5765625 13.9359375,4.096875 13.934375,1.6171875 C13.934375,1.3671875 13.73125,1.1640625 13.48125,1.1640625 C9.7921875,1.1640625 6.1015625,1.1640625 2.4109375,1.165625 Z" id="形状"></path>
                <path d="M3.646875,3.0640625 L7.134375,3.0640625 C7.2171875,3.0640625 7.2828125,3.13125 7.2828125,3.2125 L7.2828125,6.7 C7.2828125,6.7828125 7.215625,6.8484375 7.134375,6.8484375 L3.646875,6.8484375 C3.5640625,6.8484375 3.4984375,6.78125 3.4984375,6.7 L3.4984375,3.2140625 C3.4984375,3.13125 3.5640625,3.0640625 3.646875,3.0640625 Z M4.1265625,3.69375 L4.1265625,6.0734375 C4.1265625,6.1546875 4.19375,6.221875 4.275,6.221875 L6.5046875,6.221875 C6.5875,6.221875 6.653125,6.1546875 6.653125,6.0734375 L6.653125,3.8421875 C6.653125,3.7609375 6.5859375,3.69375 6.5046875,3.69375 C5.7125,3.6921875 4.9203125,3.6921875 4.1265625,3.69375 Z M8.5578125,3.3015625 C9.975,3.3 11.3921875,3.3015625 12.8109375,3.3015625 C12.89375,3.3015625 12.959375,3.36875 12.959375,3.45 L12.959375,3.7828125 C12.959375,3.865625 12.8921875,3.93125 12.8109375,3.93125 L8.5578125,3.93125 C8.475,3.93125 8.409375,3.8640625 8.409375,3.7828125 L8.409375,3.45 C8.409375,3.36875 8.475,3.3015625 8.5578125,3.3015625 Z M8.409375,5.9828125 C9.8703125,5.9828125 11.33125,5.98125 12.7921875,5.9828125 C12.875,5.9828125 12.940625,6.05 12.940625,6.13125 L12.940625,6.384375 C12.940625,6.4671875 12.8734375,6.5328125 12.7921875,6.5328125 C11.38125,6.5328125 9.96875,6.534375 8.5578125,6.5328125 C8.475,6.5328125 8.409375,6.465625 8.409375,6.384375 L8.409375,5.9828125 Z M8.2484375,9.4703125 C8.4984375,9.3859375 8.7765625,9.3671875 9.028125,9.4546875 C9.459375,9.60625 9.925,9.7125 10.278125,10.021875 C10.8484375,10.509375 11.134375,11.2515625 11.2578125,11.975 C11.2828125,12.071875 11.2734375,12.18125 11.309375,12.275 C11.3234375,12.3125 11.353125,12.340625 11.3890625,12.3578125 C11.5375,12.421875 11.6984375,12.4765625 11.803125,12.6046875 C11.815625,12.6203125 11.825,12.6375 11.83125,12.65625 C11.8671875,12.76875 11.8703125,12.9140625 11.7796875,13 C11.4265625,13.41875 10.8765625,13.5765625 10.3625,13.6890625 C9.453125,13.85 8.5203125,13.8890625 7.603125,13.778125 C7.0046875,13.7140625 6.39375,13.61875 5.85625,13.334375 L5.8421875,13.325 C5.6765625,13.2125 5.440625,13.090625 5.46875,12.859375 C5.4703125,12.8453125 5.4703125,12.8328125 5.46875,12.81875 C5.4390625,12.5359375 5.7375,12.440625 5.9671875,12.3546875 C6.01875,12.334375 6.05625,12.2875 6.0625,12.2328125 C6.1546875,11.38125 6.49375,10.515625 7.1640625,9.95625 C7.4703125,9.6921875 7.8734375,9.5984375 8.2484375,9.4703125 L8.2484375,9.4703125 Z M7.5296875,10.2546875 C6.8203125,10.7984375 6.55625,11.73125 6.5125,12.590625 C6.5109375,12.6125 6.50625,12.6359375 6.49375,12.6546875 C6.4578125,12.7140625 6.403125,12.7453125 6.340625,12.7640625 C6.209375,12.803125 6.1984375,12.9859375 6.325,13.0421875 C6.3265625,13.0421875 6.328125,13.04375 6.328125,13.04375 C6.3328125,13.0453125 6.3359375,13.046875 6.340625,13.0484375 C6.846875,13.2234375 7.3828125,13.296875 7.915625,13.3421875 C8.7046875,13.375 9.5015625,13.3890625 10.278125,13.228125 C10.521875,13.1765625 10.76875,13.1140625 10.9953125,13.009375 C11.109375,12.95625 11.109375,12.7953125 10.9953125,12.740625 C10.93125,12.709375 10.8828125,12.6609375 10.875,12.575 C10.8265625,11.95625 10.7,11.325 10.3609375,10.79375 C10.1125,10.3859375 9.684375,10.13125 9.2640625,9.9296875 C9.2546875,9.925 9.2453125,9.921875 9.234375,9.91875 C8.6578125,9.7765625 7.9921875,9.859375 7.5296875,10.2546875 L7.5296875,10.2546875 Z" id="形状"></path>
            </g>
        </g>
    </g>
</svg>