<?xml version="1.0" encoding="UTF-8"?>
<svg width="16px" height="16px" viewBox="0 0 16 16" version="1.1" xmlns="http://www.w3.org/2000/svg" xmlns:xlink="http://www.w3.org/1999/xlink">
    <title>物流</title>
    <g id="页面1" stroke="none" stroke-width="1" fill="none" fill-rule="evenodd">
        <g id="切图" transform="translate(-927.000000, -319.000000)" fill="#1BA3FF" fill-rule="nonzero">
            <g id="物流" transform="translate(927.000000, 319.000000)">
                <rect id="矩形" opacity="0" x="0" y="0" width="16" height="16"></rect>
                <path d="M14.16,1.728 L7.168,1.728 C6.344,1.728 5.672,2.4 5.672,3.224 L5.672,3.936 L4.152,3.936 C3.608,3.936 3.096,4.176 2.744,4.6 L0.696,7.08 C0.424,7.408 0.28,7.816 0.28,8.24 L0.28,12.632 C0.28,13.488 0.976,14.192 1.84,14.192 L2.888,14.192 C2.92,14.192 2.944,14.176 2.968,14.176 C3.192,14.904 3.856,15.432 4.656,15.432 C5.448,15.432 6.112,14.904 6.336,14.192 L9.856,14.192 C9.864,14.192 9.872,14.184 9.888,14.184 C10.112,14.904 10.776,15.432 11.576,15.432 C12.368,15.432 13.032,14.912 13.256,14.192 L14.088,14.192 C14.944,14.192 15.648,13.496 15.648,12.632 L15.648,3.216 C15.648,2.392 14.984,1.728 14.16,1.728 L14.16,1.728 Z M6.744,3.216 C6.744,2.984 6.936,2.792 7.168,2.792 L14.16,2.792 C14.392,2.792 14.584,2.984 14.584,3.216 L14.584,8.592 L7.168,8.592 C6.936,8.592 6.744,8.4 6.744,8.168 L6.744,3.216 Z M4.656,14.352 C4.264,14.352 3.952,14.032 3.952,13.648 C3.952,13.256 4.272,12.944 4.656,12.944 C5.04,12.944 5.36,13.264 5.36,13.648 C5.368,14.032 5.048,14.352 4.656,14.352 Z M11.576,14.352 C11.184,14.352 10.872,14.032 10.872,13.648 C10.872,13.256 11.192,12.944 11.576,12.944 C11.968,12.944 12.28,13.264 12.28,13.648 C12.28,14.032 11.968,14.352 11.576,14.352 Z M14.096,13.112 L13.264,13.112 C13.04,12.392 12.376,11.872 11.584,11.872 C10.792,11.872 10.128,12.4 9.896,13.12 C9.888,13.12 9.88,13.112 9.864,13.112 L6.344,13.112 C6.12,12.392 5.456,11.872 4.664,11.872 C3.864,11.872 3.2,12.4 2.976,13.128 C2.944,13.12 2.92,13.112 2.896,13.112 L1.832,13.112 C1.56,13.112 1.344,12.888 1.344,12.624 L1.344,8.232 C1.344,8.056 1.408,7.888 1.52,7.752 L3.568,5.272 C3.712,5.096 3.928,5 4.152,5 L5.68,5 L5.68,8.168 C5.68,8.992 6.352,9.664 7.176,9.664 L14.592,9.664 L14.592,12.624 C14.584,12.896 14.36,13.112 14.096,13.112 L14.096,13.112 Z M4.176,6.944 C4.408,7.128 4.448,7.456 4.272,7.696 L3.416,8.808 C3.312,8.944 3.152,9.016 2.992,9.016 C2.88,9.016 2.76,8.976 2.664,8.904 C2.432,8.72 2.392,8.392 2.568,8.152 L3.424,7.04 C3.608,6.808 3.944,6.768 4.176,6.944 L4.176,6.944 Z" id="形状"></path>
            </g>
        </g>
    </g>
</svg>