<?xml version="1.0" encoding="UTF-8"?>
<svg width="16px" height="16px" viewBox="0 0 16 16" version="1.1" xmlns="http://www.w3.org/2000/svg" xmlns:xlink="http://www.w3.org/1999/xlink">
    <title>展开</title>
    <g id="页面1" stroke="none" stroke-width="1" fill="none" fill-rule="evenodd">
        <g id="切图" transform="translate(-1091.000000, -19.000000)" fill="#FFFFFF" fill-rule="nonzero">
            <g id="展开" transform="translate(1099.000000, 27.000000) rotate(-180.000000) translate(-1099.000000, -27.000000) translate(1091.000000, 19.000000)">
                <rect id="矩形" opacity="0" x="0" y="0" width="16" height="16"></rect>
                <path d="M1,13.25 C1,12.9278125 1.26109375,12.6667187 1.58328125,12.6667187 L14.4165625,12.6667187 C14.73875,12.6667187 14.9998438,12.9278125 14.9998438,13.25 C14.9998438,13.5721875 14.73875,13.8332813 14.4165625,13.8332813 L1.58328125,13.8332813 C1.26109375,13.8332813 1,13.5721875 1,13.25 Z M14.4167188,11.3832812 C14.3004688,11.3832812 14.1842187,11.3832812 14.0657813,11.2665625 L10.3332812,8.4665625 C10.1007813,8.23296875 9.98234375,7.88328125 10.2170312,7.6496875 L10.3332812,7.53296875 L14.0657813,4.733125 C14.1820313,4.61640625 14.2982812,4.61640625 14.4167188,4.61640625 C14.7676563,4.61640625 15,4.85 15,5.1996875 L15,10.7995312 C15,11.1501562 14.7676563,11.3832812 14.4167188,11.3832812 Z M13.8332812,6.36671875 L11.7325,8 L13.8334375,9.63328125 L13.8334375,6.36671875 L13.8332812,6.36671875 Z M8,8.58328125 L1.58328125,8.58328125 C1.26109375,8.58328125 1,8.3221875 1,8 C1,7.6778125 1.26109375,7.41671875 1.58328125,7.41671875 L8,7.41671875 C8.3221875,7.41671875 8.58328125,7.6778125 8.58328125,8 C8.58328125,8.3221875 8.3221875,8.58328125 8,8.58328125 Z M14.4167187,3.33328125 L1.58328125,3.33328125 C1.26109375,3.33328125 1,3.0721875 1,2.75 C1,2.4278125 1.26109375,2.16671875 1.58328125,2.16671875 L14.4165625,2.16671875 C14.73875,2.16671875 14.9998438,2.4278125 14.9998438,2.75 C15,3.0721875 14.7389062,3.33328125 14.4167187,3.33328125 L14.4167187,3.33328125 Z" id="形状"></path>
            </g>
        </g>
    </g>
</svg>