<?xml version="1.0" encoding="UTF-8"?>
<svg width="14px" height="14px" viewBox="0 0 14 14" version="1.1" xmlns="http://www.w3.org/2000/svg" xmlns:xlink="http://www.w3.org/1999/xlink">
    <title> 修改订单</title>
    <g id="页面1" stroke="none" stroke-width="1" fill="none" fill-rule="evenodd">
        <g id="切图" transform="translate(-928.000000, -233.000000)" fill="#19203D" fill-rule="nonzero">
            <g id="-修改订单" transform="translate(928.000000, 233.000000)">
                <rect id="矩形" opacity="0" x="0" y="0" width="14" height="14"></rect>
                <path d="M11.9046621,4.94491211 L12.8963379,4.94491211 L12.8963379,13.17225 C12.8963379,13.60975 12.5305879,13.9591621 12.0796621,13.9591621 L1.80833789,13.9591621 C1.35916211,13.9591621 0.991662109,13.6091621 0.991662109,13.1734121 L0.991662109,2.19741211 C0.991662109,1.76283789 1.35975,1.41225 1.806,1.41225 L9.21082422,1.41225 L9.21082422,2.40391211 L1.98332422,2.40391211 L1.98332422,12.9675 L11.9046621,12.9675 L11.9046621,4.94491211 Z M2.618,9.54333789 L6.22067578,9.54333789 L6.22067578,10.7065 L2.618,10.7065 L2.618,9.54333789 Z M2.618,7.10441211 L8.66016211,7.10441211 L8.66016211,8.26758789 L2.618,8.26758789 L2.618,7.10441211 Z M10.1400879,5.79483789 C9.97394072,6.04891535 9.63842969,6.12925384 9.3752221,5.97798586 C9.11201451,5.82671788 9.01252352,5.49637947 9.14841211,5.22491211 L11.6019121,0.690087891 C11.7686847,0.434791233 12.1062253,0.35489696 12.3697459,0.508345239 C12.6332665,0.661793517 12.7303815,0.994788132 12.5906621,1.26583789 L10.1406621,5.79483789 L10.1400879,5.79483789 Z" id="形状"></path>
            </g>
        </g>
    </g>
</svg>