<?xml version="1.0" encoding="UTF-8"?>
<svg width="16px" height="16px" viewBox="0 0 16 16" version="1.1" xmlns="http://www.w3.org/2000/svg" xmlns:xlink="http://www.w3.org/1999/xlink">
    <title>7_2人力资源备份 4</title>
    <g id="页面1" stroke="none" stroke-width="1" fill="none" fill-rule="evenodd">
        <g id="切图" transform="translate(-927.000000, -407.000000)" fill="#45b681" fill-rule="nonzero">
            <g id="7_2人力资源备份-4" transform="translate(927.000000, 407.000000)">
                <rect id="矩形" opacity="0" x="0" y="0" width="16" height="16"></rect>
                <path d="M7.4755625,1.77776563 C9.00889062,1.77776563 10.3037031,3.10221875 10.3037031,4.66814063 C10.3037031,6.31704688 9.08740625,7.5555625 7.4755625,7.5555625 C6.70707431,7.56355926 5.96768866,7.26201212 5.42397981,6.71885584 C4.88027097,6.17569957 4.57797216,5.43662092 4.5851875,4.668125 C4.60671894,3.08082168 5.88825907,1.79928849 7.4755625,1.77776563 M7.4755625,0.888859375 C5.39471203,0.904182983 3.71162048,2.58727453 3.69629688,4.668125 C3.68790997,5.67272471 4.08348406,6.6385736 4.79414715,7.34867844 C5.50481024,8.05878328 6.4709697,8.45359823 7.4755625,8.44442188 C9.55853125,8.44442188 11.1925938,6.81479688 11.1925938,4.66517188 C11.1925938,2.58665625 9.4948125,0.888859375 7.4755625,0.888859375 L7.4755625,0.888859375 Z M6.3555625,14.2222031 C5.03703125,14.2222031 2.56740625,14.2222031 2.56740625,13.6681406 L2.56740625,13.3807187 C2.57257229,12.0663839 3.23121491,10.8407287 4.3244375,10.1110938 C4.92297537,9.737245 5.61741399,9.54575398 6.32296875,9.56 L8.50073438,9.56 C9.26073438,9.56 9.98221875,9.76740625 10.4785156,10.1274062 L10.5007344,10.1437031 L10.5244375,10.1585156 C10.5873309,10.1958898 10.6455259,10.240656 10.6977813,10.2918594 C10.7637803,10.3608475 10.8574647,10.3962463 10.9525938,10.3881406 C11.1362408,10.3900161 11.3021265,10.278739 11.3700537,10.1081059 C11.4379809,9.93747283 11.3939571,9.74263294 11.2592656,9.61778125 C11.0607344,9.43851563 11.2237031,9.55259375 10.9970313,9.408875 C10.2918594,8.89629688 9.36740625,8.66814062 8.49778125,8.66814062 L6.32296875,8.66814062 C5.43899469,8.65488949 4.57037836,8.89997643 3.82370313,9.37332812 C2.48924873,10.2683146 1.68518828,11.7665603 1.67703125,13.3733281 L1.67703125,13.6622344 C1.67703125,15.0711094 3.72740625,15.1051875 6.3540625,15.1051875 L8.66073438,15.1051875 C8.90214158,15.099559 9.0948866,14.9022072 9.0948125,14.6607344 C9.0948125,14.4152783 8.89583105,14.2162969 8.650375,14.2162969 C8.26073438,14.2222344 6.3555625,14.2222344 6.3555625,14.2222344 L6.3555625,14.2222031 Z" id="形状"></path>
                <path d="M10.0251875,11.2251875 L14.1733281,11.2251875 C14.272099,11.2251875 14.3214844,11.2745677 14.3214844,11.3733281 L14.3214844,11.9659219 C14.3214844,12.0646927 14.272099,12.1140781 14.1733281,12.1140781 L10.0251875,12.1140781 C9.92641667,12.1140781 9.87703125,12.0646927 9.87703125,11.9659219 L9.87703125,11.3733281 C9.87703125,11.2745677 9.92641667,11.2251875 10.0251875,11.2251875 Z M10.0251875,12.7229687 L14.1733281,12.7229687 C14.272099,12.7229687 14.3214844,12.772349 14.3214844,12.8711094 L14.3214844,13.4637031 C14.3214844,13.562474 14.272099,13.6118594 14.1733281,13.6118594 L10.0251875,13.6118594 C9.92641667,13.6118594 9.87703125,13.562474 9.87703125,13.4637031 L9.87703125,12.8711094 C9.87703125,12.772349 9.92641667,12.7229687 10.0251875,12.7229687 Z M10.0251875,14.2222187 L14.1733281,14.2222187 C14.272099,14.2222187 14.3214844,14.2716042 14.3214844,14.370375 L14.3214844,14.9629688 C14.3214844,15.0617292 14.272099,15.1111094 14.1733281,15.1111094 L10.0251875,15.1111094 C9.92641667,15.1111094 9.87703125,15.0617292 9.87703125,14.9629688 L9.87703125,14.370375 C9.87703125,14.2716042 9.92641667,14.2222187 10.0251875,14.2222187 Z" id="形状"></path>
            </g>
        </g>
    </g>
</svg>