<?xml version="1.0" encoding="UTF-8"?>
<svg width="16px" height="16px" viewBox="0 0 16 16" version="1.1" xmlns="http://www.w3.org/2000/svg" xmlns:xlink="http://www.w3.org/1999/xlink">
    <title>流程备份 4</title>
    <g id="页面1" stroke="none" stroke-width="1" fill="none" fill-rule="evenodd">
        <g id="切图" transform="translate(-927.000000, -187.000000)" fill="#45b681" fill-rule="nonzero">
            <g id="流程备份-4" transform="translate(927.000000, 187.000000)">
                <rect id="矩形" opacity="0" x="0" y="0" width="16" height="16"></rect>
                <path d="M14.296,9.944 L12.952,9.944 L12.952,7.864 L8.664,7.864 L8.664,6.8 L9.88,6.8 C10.488,6.8 10.984,6.304 10.984,5.696 L10.984,3.152 C10.984,2.544 10.488,2.048 9.88,2.048 L6.384,2.048 C5.776,2.048 5.28,2.544 5.28,3.152 L5.28,5.696 C5.28,6.304 5.776,6.8 6.384,6.8 L7.656,6.8 L7.656,7.864 L3.32,7.864 L3.32,9.944 L2.072,9.944 C1.464,9.944 0.968,10.44 0.968,11.048 L0.968,13.6 C0.968,14.208 1.464,14.704 2.072,14.704 L5.568,14.704 C6.176,14.704 6.672,14.208 6.672,13.6 L6.672,11.048 C6.672,10.44 6.176,9.944 5.568,9.944 L4.24,9.944 L4.24,8.784 L12.032,8.784 L12.032,9.944 L10.8,9.944 C10.192,9.944 9.696,10.44 9.696,11.048 L9.696,13.6 C9.696,14.208 10.192,14.704 10.8,14.704 L14.296,14.704 C14.904,14.704 15.4,14.208 15.4,13.6 L15.4,11.048 C15.4,10.44 14.904,9.944 14.296,9.944 L14.296,9.944 Z M5.568,10.864 C5.672,10.864 5.752,10.944 5.752,11.048 L5.752,13.6 C5.752,13.704 5.672,13.784 5.568,13.784 L2.072,13.784 C1.968,13.784 1.888,13.704 1.888,13.6 L1.888,11.048 C1.888,10.944 1.968,10.864 2.072,10.864 L5.568,10.864 Z M6.392,5.88 C6.288,5.88 6.208,5.8 6.208,5.696 L6.208,3.152 C6.208,3.048 6.288,2.968 6.392,2.968 L9.888,2.968 C9.992,2.968 10.072,3.048 10.072,3.152 L10.072,5.696 C10.072,5.8 9.992,5.88 9.888,5.88 L6.392,5.88 L6.392,5.88 Z M14.48,13.6 C14.48,13.704 14.4,13.784 14.296,13.784 L10.8,13.784 C10.696,13.784 10.616,13.704 10.616,13.6 L10.616,11.048 C10.616,10.944 10.696,10.864 10.8,10.864 L14.296,10.864 C14.4,10.864 14.48,10.944 14.48,11.048 L14.48,13.6 Z" id="形状"></path>
            </g>
        </g>
    </g>
</svg>