<?xml version="1.0" encoding="UTF-8"?>
<svg width="16px" height="16px" viewBox="0 0 16 16" version="1.1" xmlns="http://www.w3.org/2000/svg" xmlns:xlink="http://www.w3.org/1999/xlink">
    <title>规避知产风险</title>
    <g id="页面1" stroke="none" stroke-width="1" fill="none" fill-rule="evenodd">
        <g id="切图" transform="translate(-927.000000, -275.000000)" fill="#19203D" fill-rule="nonzero">
            <g id="规避知产风险" transform="translate(927.000000, 275.000000)">
                <rect id="矩形" opacity="0" x="0" y="0" width="16" height="16"></rect>
                <path d="M7.8800625,15.9982187 C7.77954399,16.0003187 7.68105696,15.9697523 7.59939062,15.9111094 C4.4306139,15.3389343 1.91563385,12.9193676 1.22139063,9.77507813 C1.21662061,9.74299403 1.21662061,9.71038097 1.22139063,9.67829688 L1.22139063,2.9615625 C1.22314114,2.72020271 1.39918301,2.51550901 1.6375625,2.47765625 C3.88292188,2.18728125 7.1541875,1.3259375 7.44453125,0.34840625 C7.50475428,0.141937616 7.69402141,0 7.90909375,0 L8.09298438,0 C8.30556381,0.00106138246 8.49146484,0.143456518 8.54785938,0.348421875 C8.83820312,1.31623437 12.1191562,2.18729687 14.3548281,2.47764062 C14.597051,2.5111847 14.7781998,2.71702505 14.7806875,2.96154687 L14.7806875,9.77507813 C14.0795848,12.9317494 11.5479381,15.3564761 8.36396875,15.9207969 C8.27576566,15.9801796 8.16986108,16.0075079 8.0639375,15.9982188 L7.8800625,15.9982187 Z M2.18921875,9.67829687 C2.87138161,12.4630733 5.16272814,14.5634717 7.99620313,15.0013594 C9.13823438,14.77875 12.9127656,13.7431719 13.8031719,9.62990625 L13.8031719,3.37771875 C12.4482188,3.17448437 9.16726563,2.54539062 7.99620313,1.2581875 C6.82510938,2.54539062 3.54417187,3.19384375 2.18921875,3.37771875 L2.18921875,9.67829687 Z" id="形状"></path>
                <path d="M8.16073438,10.5880469 C8.02516532,10.5878012 7.89566504,10.5318063 7.802625,10.4332031 L5.76051563,8.13945312 L4.12489063,10.05575 L3.37965625,9.42665625 L5.3153125,7.0941875 C5.40714426,6.98593116 5.54114035,6.92245423 5.68307812,6.91996875 C5.82460048,6.91456761 5.96056384,6.97539241 6.05085937,7.0845 L8.16073438,9.37828125 L11.8675,5.23595312 L12.5836875,5.88439062 L8.53817187,10.4332031 C8.44029436,10.5305547 8.30842485,10.5860746 8.17039062,10.5880469 L8.16073438,10.5880469 Z" id="路径"></path>
            </g>
        </g>
    </g>
</svg>