<?xml version="1.0" encoding="UTF-8"?>
<svg width="14px" height="14px" viewBox="0 0 14 14" version="1.1" xmlns="http://www.w3.org/2000/svg" xmlns:xlink="http://www.w3.org/1999/xlink">
    <title>系统</title>
    <g id="页面1" stroke="none" stroke-width="1" fill="none" fill-rule="evenodd">
        <g id="切图" transform="translate(-928.000000, -541.000000)" fill="#1BA3FF" fill-rule="nonzero">
            <g id="系统" transform="translate(928.000000, 541.000000)">
                <rect id="矩形" opacity="0" x="0" y="0" width="14" height="14"></rect>
                <path d="M4.8125,6.125 L1.3125,6.125 C0.587626266,6.125 0,5.53737373 0,4.8125 L0,1.3125 C0,0.587626266 0.587626266,0 1.3125,0 L4.8125,0 C5.53737373,0 6.125,0.587626266 6.125,1.3125 L6.125,4.8125 C6.125,5.53737373 5.53737373,6.125 4.8125,6.125 Z M1.3125,0.875 C1.07087542,0.875 0.875,1.07087542 0.875,1.3125 L0.875,4.8125 C0.875,5.05412458 1.07087542,5.25 1.3125,5.25 L4.8125,5.25 C5.05412458,5.25 5.25,5.05412458 5.25,4.8125 L5.25,1.3125 C5.25,1.07087542 5.05412458,0.875 4.8125,0.875 L1.3125,0.875 Z M10.9375,6.125 C9.24612795,6.125 7.875,4.75387205 7.875,3.0625 C7.875,1.37112795 9.24612795,0 10.9375,0 C12.628872,0 14,1.37112795 14,3.0625 C14,4.75387205 12.628872,6.125 10.9375,6.125 L10.9375,6.125 Z M10.9375,0.875 C9.72937711,0.875 8.75,1.85437711 8.75,3.0625 C8.75,4.27062289 9.72937711,5.25 10.9375,5.25 C12.1456229,5.25 13.125,4.27062289 13.125,3.0625 C13.125,2.48233893 12.8945319,1.92593974 12.4842961,1.51570392 C12.0740603,1.10546809 11.5176611,0.875 10.9375,0.875 Z M4.8125,14 L1.3125,14 C0.587626266,14 0,13.4123737 0,12.6875 L0,9.1875 C0,8.46262627 0.587626266,7.875 1.3125,7.875 L4.8125,7.875 C5.53737373,7.875 6.125,8.46262627 6.125,9.1875 L6.125,12.6875 C6.125,13.4123737 5.53737373,14 4.8125,14 Z M1.3125,8.75 C1.07087542,8.75 0.875,8.94587542 0.875,9.1875 L0.875,12.6875 C0.875,12.9291246 1.07087542,13.125 1.3125,13.125 L4.8125,13.125 C5.05412458,13.125 5.25,12.9291246 5.25,12.6875 L5.25,9.1875 C5.25,8.94587542 5.05412458,8.75 4.8125,8.75 L1.3125,8.75 Z M12.6875,14 L9.1875,14 C8.46262627,14 7.875,13.4123737 7.875,12.6875 L7.875,9.1875 C7.875,8.46262627 8.46262627,7.875 9.1875,7.875 L12.6875,7.875 C13.4123737,7.875 14,8.46262627 14,9.1875 L14,12.6875 C14,13.4123737 13.4123737,14 12.6875,14 Z M9.1875,8.75 C8.94587542,8.75 8.75,8.94587542 8.75,9.1875 L8.75,12.6875 C8.75,12.9291246 8.94587542,13.125 9.1875,13.125 L12.6875,13.125 C12.9291246,13.125 13.125,12.9291246 13.125,12.6875 L13.125,9.1875 C13.125,8.94587542 12.9291246,8.75 12.6875,8.75 L9.1875,8.75 Z" id="形状"></path>
            </g>
        </g>
    </g>
</svg>