<?xml version="1.0" encoding="utf-8"?>
<!-- Generator: Adobe Illustrator 27.0.0, SVG Export Plug-In . SVG Version: 6.00 Build 0)  -->
<svg version="1.1" id="图层_1" xmlns="http://www.w3.org/2000/svg" xmlns:xlink="http://www.w3.org/1999/xlink" x="0px" y="0px"
	 viewBox="0 0 200 44.4" style="enable-background:new 0 0 200 44.4;" xml:space="preserve">
<style type="text/css">
	.st0{fill:#25CCB8;}
	.st1{fill:#02124F;}
</style>
<g>
	<polygon class="st0" points="61.49,9.84 55.44,4.35 41.67,23.93 46.04,30.44 38.83,27.96 27.27,44.4 37.18,44.4 46.82,30.7 
		46.82,30.7 	"/>
	<path class="st1" d="M107.6,8.03l-0.88,8.32h-3.77l1.53-14.55h2.94l6.71,8.54l0.9-8.54h3.77l-1.53,14.55h-3.03L107.6,8.03z"/>
	<path class="st1" d="M120.08,16.35l0.35-3.34h3.01l-0.35,3.34H120.08z"/>
	<path class="st1" d="M138.07,16.35l0.35-3.34h3.01l-0.35,3.34H138.07z"/>
	<path class="st1" d="M123.66,40.41c-0.04,0.41-0.16,0.78-0.34,1.13c-0.19,0.35-0.43,0.65-0.72,0.92s-0.62,0.47-0.99,0.62
		c-0.37,0.15-0.76,0.23-1.16,0.23h-3l1.37-2.63h0.56c0.25,0,0.46-0.08,0.64-0.24c0.18-0.16,0.28-0.35,0.3-0.58l1.29-12.24
		c0.02-0.23-0.04-0.42-0.18-0.58c-0.14-0.16-0.34-0.24-0.59-0.24h-15.67l-1.74,16.52h-3.4l2.01-19.15h20.4
		c0.41,0,0.78,0.08,1.12,0.23c0.34,0.15,0.62,0.36,0.86,0.62c0.24,0.27,0.41,0.58,0.53,0.93c0.11,0.35,0.15,0.73,0.11,1.14
		L123.66,40.41z M112.85,28.25c-0.23,0.8-0.5,1.58-0.83,2.35c-0.33,0.77-0.65,1.47-0.96,2.08c-0.38,0.71-0.76,1.39-1.14,2.05
		c0.22,0.42,0.47,0.85,0.76,1.27c0.28,0.42,0.6,0.84,0.94,1.25l-0.33,3.16c-0.64-0.46-1.22-0.97-1.72-1.54
		c-0.51-0.57-0.96-1.16-1.35-1.78c-0.52,0.62-1.1,1.21-1.73,1.78c-0.63,0.57-1.32,1.08-2.07,1.54l0.33-3.16
		c0.45-0.41,0.86-0.82,1.22-1.25c0.36-0.43,0.71-0.85,1.04-1.27c-0.25-0.66-0.49-1.34-0.71-2.05c-0.18-0.62-0.36-1.31-0.52-2.08
		c-0.17-0.77-0.28-1.55-0.34-2.35h2.52c0.03,0.41,0.08,0.83,0.17,1.27c0.09,0.44,0.18,0.84,0.29,1.2c0.11,0.42,0.23,0.84,0.35,1.25
		c0.2-0.41,0.4-0.82,0.61-1.25c0.18-0.35,0.35-0.75,0.52-1.2c0.17-0.44,0.31-0.87,0.43-1.27H112.85z M112.61,37.25
		c0.43-0.41,0.83-0.82,1.21-1.25c0.37-0.43,0.71-0.85,1.02-1.27c-0.25-0.66-0.49-1.34-0.71-2.05c-0.18-0.62-0.36-1.31-0.52-2.08
		c-0.17-0.77-0.28-1.55-0.34-2.35h2.55c0.03,0.41,0.08,0.83,0.16,1.27c0.08,0.44,0.17,0.84,0.27,1.2c0.11,0.42,0.23,0.84,0.35,1.25
		c0.22-0.41,0.43-0.82,0.64-1.25c0.18-0.35,0.35-0.75,0.52-1.2c0.17-0.44,0.31-0.87,0.43-1.27h2.52c-0.23,0.8-0.5,1.58-0.83,2.35
		c-0.33,0.77-0.65,1.47-0.96,2.08c-0.38,0.71-0.76,1.39-1.14,2.05c0.24,0.42,0.49,0.85,0.77,1.27c0.27,0.42,0.59,0.84,0.96,1.25
		l-0.33,3.16c-0.64-0.46-1.22-0.97-1.73-1.54c-0.52-0.57-0.97-1.16-1.37-1.78c-0.52,0.62-1.1,1.21-1.73,1.78
		c-0.63,0.57-1.31,1.08-2.05,1.54L112.61,37.25z"/>
	<path class="st1" d="M130.51,28.12l-0.46,4.36h0.9l0.55-5.26h-4.3l0.22-2.05h1.09l-0.02-1.04h3.79l0.1,1.04h2.09l0.29-1.04h3.84
		l-0.29,1.04h1.11l-0.22,2.05h-4.3l-0.55,5.26h0.05c0.26,0,0.46-0.08,0.63-0.24c0.18-0.18,0.28-0.36,0.3-0.56l0.37-3.56h3.4
		l-0.41,3.9c-0.04,0.37-0.14,0.7-0.32,0.98c-0.07,0.14-0.16,0.28-0.27,0.41c-0.11,0.13-0.22,0.25-0.32,0.36
		c-0.25,0.23-0.55,0.41-0.88,0.53c-0.3,0.14-0.62,0.21-0.98,0.21h-1.99c0,0-0.13,1.34-1.03,1.75c-0.57,0-2.27,0-3.54,0
		c0.94-0.61,1.12-1.75,1.12-1.75h-4.07l0.67-6.4H130.51z M148.9,43.36h-23.4l0.27-2.52h9.91l0.14-1.33h-9.06l0.27-2.52h9.06
		l0.08-0.74h3.61l-0.08,0.74h9.03l-0.27,2.52h-9.03l-0.14,1.33h9.88L148.9,43.36z M150.02,32.74c-0.05,0.44-0.16,0.82-0.33,1.14
		c-0.2,0.39-0.45,0.7-0.73,0.93c-0.26,0.27-0.59,0.47-0.99,0.61c-0.41,0.16-0.8,0.24-1.17,0.24h-2.12l0.86-1.64h0.29
		c0.12,0,0.24-0.04,0.36-0.13c0.04-0.04,0.08-0.11,0.12-0.23c0.04-0.12,0.07-0.2,0.09-0.25h-3.59c0,0-0.01,0.06-0.01,0.08
		c-0.13,1.2-0.87,2.18-0.87,2.18h-3.29c0,0,0.64-1.02,0.74-2.02c0.25-2.41,0.99-9.45,0.99-9.45h8.5c0.57,0,1.03,0.2,1.38,0.61
		c0.36,0.41,0.5,0.9,0.44,1.49L150.02,32.74z M143.41,27.66H147l0.08-0.74c0.01-0.11,0-0.21-0.05-0.31
		c-0.04-0.1-0.15-0.15-0.33-0.15h-3.16L143.41,27.66z M143.05,31.06h3.59l0.11-1.06h-3.59L143.05,31.06z"/>
	<path class="st1" d="M158.93,26.87l-0.2,1.91h3.29l-0.24,2.28h-3.29l-1.27,12.11h-2.79l1.19-11.26c0.05-0.47-0.29-0.85-0.76-0.85
		h-2.47l0.24-2.28h3.32l0.19-1.83l-3.07,0.11l0.25-2.42l9.27-0.29l-0.25,2.42L158.93,26.87z"/>
	<path class="st1" d="M151.59,41.95l1.06-10.09h0.95c0.68,0,1.17,0.55,1.1,1.23l-1.06,10.09h-0.95
		C152.02,43.18,151.52,42.63,151.59,41.95z"/>
	<polygon class="st1" points="161.3,31.86 160.08,43.18 157.9,43.18 159.09,31.86 	"/>
	<polygon class="st1" points="172.85,36.11 175.08,36.11 174.83,38.5 172.6,38.5 172.11,43.15 168.5,43.15 168.99,38.5 161.71,38.5 
		161.96,36.11 169.24,36.11 170.48,24.29 174.1,24.29 	"/>
	<path class="st1" d="M179.84,34.36l0.6-5.67h-2.82l0.28-2.63h2.82l0.21-1.98h3.4l-0.21,1.98h2.98l-0.28,2.63h-2.98l-0.2,1.92
		l-0.49,4.7l-0.55,5.21c-0.04,0.41-0.16,0.78-0.34,1.13c-0.19,0.35-0.43,0.65-0.72,0.92c-0.29,0.27-0.62,0.47-1,0.62
		c-0.37,0.15-0.76,0.23-1.17,0.23h-2.76l1.28-2.28h0.42c0.23,0,0.43-0.08,0.61-0.24c0.18-0.16,0.28-0.35,0.3-0.58l0.16-1.57"/>
	<path class="st1" d="M199.27,33.16c-0.28,0.78-0.82,1.66-1.63,2.66c-0.81,0.99-1.79,1.97-2.94,2.92c0.69,0.51,1.41,0.97,2.15,1.38
		c0.74,0.41,1.49,0.69,2.23,0.85l-0.26,2.44c-1.12-0.12-2.23-0.45-3.34-0.97c-1.1-0.52-2.15-1.17-3.13-1.95
		c-1.14,0.78-2.33,1.43-3.55,1.95c-1.22,0.52-2.41,0.85-3.55,0.97l0.26-2.44c0.78-0.16,1.58-0.44,2.41-0.85
		c0.83-0.41,1.65-0.87,2.44-1.38c-0.8-0.81-1.48-1.64-2.04-2.48c-0.56-0.84-0.95-1.63-1.17-2.38h3.03c0.22,0.41,0.55,0.88,0.99,1.42
		c0.44,0.54,0.95,1.1,1.55,1.69c0.99-0.81,1.81-1.58,2.47-2.3c0.66-0.72,1.05-1.23,1.17-1.53h-9.4l0.26-2.44h4.38l0.22-2.05h-4.38
		l0.26-2.44h4.38l0.22-2.04h3.24l-0.22,2.04H200l-0.26,2.44h-4.67l-0.22,2.05h4.67L199.27,33.16z"/>
	<path class="st1" d="M168.58,28.04l-1.09-3.01c-0.15-0.3-0.39-0.45-0.72-0.45l-2.72-0.04l1.98,4.5l-1.01,0.04
		c-1.05,0.41-1.4,1.24-1.04,2.48l0.9,3.84l2.8,0.04l-0.9-3.59c-0.15-0.4-0.15-0.88,0.74-0.91C169,30.77,169.36,29.8,168.58,28.04z"
		/>
	<path class="st1" d="M138.99,4.93c-0.21-0.59-0.52-1.11-0.94-1.58c-0.42-0.46-0.94-0.84-1.56-1.13c-0.62-0.29-1.32-0.43-2.1-0.43
		h-6.94L129,4.75h1.88l0-0.01h2.94c0.21,0,0.43,0.04,0.63,0.11c0.21,0.08,0.39,0.19,0.54,0.36c0.15,0.16,0.26,0.37,0.34,0.61
		c0.07,0.25,0.09,0.54,0.06,0.88c-0.07,0.66-0.28,1.15-0.64,1.5c-0.36,0.34-0.76,0.51-1.2,0.51h-3.08l0-0.01h-3.77l-0.8,7.63h3.77
		l0.49-4.69h3.31c0.78,0,1.51-0.14,2.18-0.41c0.67-0.27,1.26-0.64,1.76-1.11c0.5-0.46,0.91-0.99,1.22-1.58
		c0.32-0.59,0.51-1.2,0.57-1.84C139.26,6.11,139.19,5.52,138.99,4.93z"/>
	<polygon class="st1" points="186.32,33.3 176.73,37.12 177.01,34.49 186.6,30.67 	"/>
	<polygon class="st1" points="155.23,1.8 149.36,1.8 148.33,1.8 142.48,1.8 142.17,4.75 147.15,4.75 145.93,16.35 149.7,16.35 
		150.7,6.81 147.61,4.75 150.92,4.75 151.89,4.75 156.85,4.75 	"/>
	<g>
		<polygon class="st0" points="91.01,2.05 28.4,2.05 29.77,0 92.38,0 		"/>
	</g>
	<g>
		<path class="st1" d="M32.58,12.94H22.05L0,44.4h19.39l-1.08-1.68c-1.38-2.16-2.78-4.9-1.33-7.02L32.58,12.94z"/>
		<path class="st1" d="M66.77,4.43l1.44,1.06c2.04,1.49,3.97,2.9,5.07,4.42c1.19,1.65,1.18,3.18-0.02,4.82L64.64,26.5
			c-1.26,1.61-3.5,2.63-5.85,2.67c-2.03,0.04-3.82-0.66-4.86-1.88L38.49,4.43H27.67L54.32,44.4h8.59l27.6-39.98H66.77z"/>
	</g>
</g>
</svg>
