<?xml version="1.0" encoding="UTF-8"?>
<svg width="113px" height="25px" viewBox="0 0 113 25" version="1.1" xmlns="http://www.w3.org/2000/svg" xmlns:xlink="http://www.w3.org/1999/xlink">
    <title>编组</title>
    <defs>
        <polygon id="path-1" points="0 0 8.32928715 0 8.32928715 10.8266143 0 10.8266143"></polygon>
        <polygon id="path-3" points="0 0 18.4087248 0 18.4087248 17.7161828 0 17.7161828"></polygon>
        <polygon id="path-5" points="0 0 35.5041383 0 35.5041383 22.5083237 0 22.5083237"></polygon>
    </defs>
    <g id="页面1" stroke="none" stroke-width="1" fill="none" fill-rule="evenodd">
        <g id="切图" transform="translate(-26.000000, -14.000000)">
            <g id="编组" transform="translate(26.000000, 14.000000)">
                <polygon id="Fill-1" fill="#25CCB8" points="22.9949708 13.2430072 25.4242747 16.9805019 21.4196691 15.5595709 15 25 20.5054039 25 25.8549906 17.133118 34 5.15520538 30.6405396 2"></polygon>
                <polygon id="Fill-2" fill="#FFFFFF" points="60.6371995 4.42541775 60.1400727 9 58 9 58.8690747 1 60.539674 1 64.3488683 5.69865604 64.859294 1 67 1 66.1307142 9 64.4077636 9"></polygon>
                <polygon id="Fill-3" fill="#FFFFFF" points="68 10 68.2089783 8 70 8 69.7908005 10"></polygon>
                <polygon id="Fill-4" fill="#FFFFFF" points="78 10 78.2090014 8 80 8 79.7907774 10"></polygon>
                <g>
                    <path d="M63.6271653,20.9740876 C63.871429,20.7449097 64.0982603,20.5107088 64.3082893,20.2714847 C64.5189483,20.0320514 64.7117549,19.7928274 64.8869191,19.5538126 C64.7453596,19.1848258 64.6111511,18.8011883 64.4832434,18.4022723 C64.3799091,18.0533777 64.2820356,17.661787 64.1875226,17.2283374 C64.0932196,16.7944691 64.0300009,16.3536941 63.9974464,15.9051752 L65.4363549,15.9051752 C65.4525271,16.1343531 65.4825613,16.3733678 65.5254072,16.6228473 C65.5693032,16.8716989 65.6205503,17.096063 65.6795685,17.2957303 C65.7440474,17.5349543 65.8093664,17.7691553 65.8748954,17.9983332 C65.9996526,17.7691553 66.1193691,17.5349543 66.234465,17.2957303 C66.3354889,17.096063 66.4342026,16.8716989 66.5297658,16.6228473 C66.6261691,16.3733678 66.7066102,16.1343531 66.770459,15.9051752 L68.1944554,15.9051752 C68.0671779,16.3536941 67.9109163,16.7944691 67.7248306,17.2283374 C67.5397951,17.661787 67.3583301,18.0533777 67.1812756,18.4022723 C66.9693564,18.8011883 66.7540767,19.1848258 66.5352265,19.5538126 C66.6700651,19.7928274 66.814565,20.0320514 66.9691464,20.2714847 C67.1235177,20.5107088 67.3041426,20.7449097 67.5093409,20.9740876 L67.321365,22.7539312 C66.959485,22.4946148 66.6322599,22.2053693 66.3417898,21.8866132 C66.0506897,21.5674386 65.7931941,21.2338226 65.5701434,20.8845094 C65.2735824,21.2338226 64.9490877,21.5674386 64.5953989,21.8866132 C64.2417101,22.2053693 63.856727,22.4946148 63.4391894,22.7539312 L63.6271653,20.9740876 Z M63.7582234,15.9051752 C63.6309458,16.3536941 63.4738441,16.7944691 63.2888086,17.2283374 C63.1027229,17.661787 62.9212579,18.0533777 62.7450436,18.4022723 C62.5327043,18.8011883 62.3174246,19.1848258 62.0985744,19.5538126 C62.2231216,19.7928274 62.3653112,20.0320514 62.5251433,20.2714847 C62.6841352,20.5107088 62.8622398,20.7449097 63.0581968,20.9740876 L62.8702209,22.7539312 C62.5077109,22.4946148 62.1834261,22.2053693 61.8973666,21.8866132 C61.6110972,21.5674386 61.356542,21.2338226 61.1337013,20.8845094 C60.8369303,21.2338226 60.5120155,21.5674386 60.1583267,21.8866132 C59.805058,22.2053693 59.4146141,22.4946148 58.9878352,22.7539312 L59.1758112,20.9740876 C59.4297362,20.7449097 59.6592979,20.5107088 59.8642862,20.2714847 C60.0692744,20.0320514 60.2646014,19.7928274 60.4498469,19.5538126 C60.3087075,19.1848258 60.174499,18.8011883 60.0468013,18.4022723 C59.9434671,18.0533777 59.8449635,17.661787 59.7508705,17.2283374 C59.6567775,16.7944691 59.5933488,16.3536941 59.5607943,15.9051752 L60.9847907,15.9051752 C61.0003329,16.1343531 61.0326773,16.3733678 61.0814041,16.6228473 C61.1301308,16.8716989 61.1836882,17.096063 61.2427063,17.2957303 C61.3076053,17.5349543 61.3725042,17.7691553 61.4382433,17.9983332 C61.5524991,17.7691553 61.6669649,17.5349543 61.7822708,17.2957303 C61.8832947,17.096063 61.9820083,16.8716989 62.0782016,16.6228473 C62.1743949,16.3733678 62.2546259,16.1343531 62.3188948,15.9051752 L63.7582234,15.9051752 Z M69.8700666,22.7539312 C69.8459133,22.9831091 69.7805943,23.1947062 69.6751597,23.3893504 C69.5697252,23.5837853 69.4344665,23.7554071 69.2687536,23.905053 C69.1028307,24.0546988 68.9154849,24.1721132 68.7071362,24.2566683 C68.4977373,24.3414328 68.2788871,24.3837103 68.0489053,24.3837103 L66.3552317,24.3837103 L67.1314988,22.9033677 L67.4490626,22.9033677 C67.5908321,22.9033677 67.7109687,22.85816 67.8111525,22.7685818 C67.9113364,22.6790036 67.9682542,22.5693331 67.9821161,22.4395703 L68.7098665,15.5460252 C68.7235184,15.416681 68.6897037,15.3068012 68.6092626,15.2170137 C68.5288216,15.1274355 68.4181363,15.0826464 68.278047,15.0826464 L59.4251156,15.0826464 L58.4432301,24.3837103 L56.5225151,24.3837103 L57.6606621,13.6018852 L69.1872624,13.6018852 C69.4172441,13.6018852 69.6270631,13.6445813 69.8186095,13.7291364 C70.0091058,13.8139009 70.1716682,13.9308967 70.3058767,14.0805425 C70.4400852,14.2299791 70.5387989,14.4047403 70.6026477,14.603989 C70.6664965,14.8036563 70.6868693,15.0175557 70.662716,15.2469428 L69.8700666,22.7539312 Z" id="Fill-5" fill="#FFFFFF"></path>
                    <path d="M80.824884,17.4901234 L82.8504034,17.4901234 L82.9136221,16.8919586 L80.8881027,16.8919586 L80.824884,17.4901234 Z M81.0269318,15.5759125 L83.0524513,15.5759125 L83.0967674,15.1573228 C83.1030683,15.0974644 83.0942471,15.0403269 83.0698837,14.9852824 C83.0457304,14.9306564 82.9833518,14.9030295 82.883588,14.9030295 L81.0979216,14.9030295 L81.0269318,15.5759125 Z M84.7620872,18.4321596 C84.7358335,18.6816391 84.6728249,18.8955384 84.5739012,19.0751134 C84.4606956,19.2944544 84.3222865,19.4692157 84.1586739,19.5985599 C84.0124938,19.7482057 83.8253579,19.86269 83.5970564,19.9424314 C83.3674948,20.0320096 83.1480145,20.0772172 82.9375654,20.0772172 L81.7370398,20.0772172 L82.2245171,19.1540176 L82.3898099,19.1540176 C82.4595395,19.1540176 82.5273789,19.1289022 82.5929079,19.0784621 C82.6147509,19.0583698 82.637014,19.0152551 82.658857,18.9495365 C82.68091,18.8840272 82.6983424,18.8365173 82.7115743,18.8059602 L80.6860548,18.8059602 C80.6860548,18.8059602 80.6822743,18.839866 80.6812242,18.8511679 C80.6100243,19.525516 80.1914366,20.0772172 80.1914366,20.0772172 L78.3307899,20.0772172 C78.3307899,20.0772172 78.6916197,19.5020749 78.7508478,18.9403275 C78.8938776,17.5855618 79.3128854,13.6171218 79.3128854,13.6171218 L84.1147779,13.6171218 C84.434652,13.6171218 84.695508,13.7316061 84.8965057,13.9609933 C85.0972934,14.1901712 85.1804649,14.4691612 85.1458101,14.7981728 L84.7620872,18.4321596 Z M84.13053,24.4135976 L70.909836,24.4135976 L71.0597967,22.9929041 L76.657489,22.9929041 L76.7364599,22.2453028 L71.6191039,22.2453028 L71.7690646,20.8246092 L76.8864206,20.8246092 L76.9305267,20.4058102 L78.9713783,20.4058102 L78.9272722,20.8246092 L84.0292961,20.8246092 L83.8793354,22.2453028 L78.7771015,22.2453028 L78.6983406,22.9929041 L84.2807008,22.9929041 L84.13053,24.4135976 Z M73.7368261,15.8302058 L73.4780704,18.282723 L73.9884408,18.282723 L74.3009639,15.3216192 L71.8696685,15.3216192 L71.9912752,14.1700789 L72.6051899,14.1700789 L72.5921681,13.5871927 L74.7332035,13.5871927 L74.7915916,14.1700789 L75.9744748,14.1700789 L76.1406077,13.5871927 L78.3116772,13.5871927 L78.1455443,14.1700789 L78.774161,14.1700789 L78.6527643,15.3216192 L76.2218889,15.3216192 L75.9091558,18.282723 L75.9402401,18.282723 C76.08453,18.282723 76.2025663,18.2379339 76.2945589,18.1479371 C76.3976832,18.0485221 76.4550211,17.9436654 76.4665727,17.8339948 L76.6780719,15.8302058 L78.5989969,15.8302058 L78.3669149,18.0284298 C78.3448618,18.2379339 78.2854236,18.4223227 78.1886003,18.5818054 C78.1499549,18.6615468 78.0993379,18.7387766 78.0367493,18.8134948 C77.9735306,18.8882131 77.9140924,18.955606 77.8578046,19.0152551 C77.7143548,19.1450179 77.548642,19.2448516 77.3612961,19.3143375 C77.1928529,19.3942881 77.0088675,19.4338448 76.8089199,19.4338448 L75.6829546,19.4338448 C75.6829546,19.4338448 75.6073441,20.1877249 75.1018044,20.4210887 L73.1004383,20.4210887 C73.6292912,20.0772172 73.7336756,19.4338448 73.7336756,19.4338448 L71.4355386,19.4338448 L71.8161111,15.8302058 L73.7368261,15.8302058 Z" id="Fill-7" fill="#FFFFFF"></path>
                    <path d="M89.7929112,15.1273517 L89.6792856,16.2041738 L91.5399323,16.2041738 L91.4040435,17.4900815 L89.5433968,17.4900815 L88.8236275,24.3089083 L87.2477801,24.3089083 L87.9173525,17.9666459 C87.9452863,17.703353 87.7535299,17.4900815 87.4895235,17.4900815 L86.0922007,17.4900815 L86.2280894,16.2041738 L88.1034382,16.2041738 L88.2124432,15.1721408 L86.4807543,15.2322085 L86.6244141,13.8713732 L91.863797,13.7066582 L91.7201371,15.0672841 L89.7929112,15.1273517 Z" id="Fill-9" fill="#FFFFFF"></path>
                    <path d="M85.6508878,23.617419 L86.2503105,17.9388306 L86.7871446,17.9388306 C87.1704474,17.9388306 87.4483158,18.2483778 87.4079902,18.6303409 L86.8085675,24.3089293 L86.2717334,24.3089293 C85.8886406,24.3089293 85.6105622,23.9993822 85.6508878,23.617419" id="Fill-11" fill="#FFFFFF"></path>
                    <polygon id="Fill-13" fill="#FFFFFF" points="91.132056 17.9387679 90.4446312 24.3088665 89.2140714 24.3088665 89.8865842 17.9387679"></polygon>
                    <polygon id="Fill-15" fill="#FFFFFF" points="97.6619829 20.3311129 98.9227868 20.3311129 98.7805972 21.6770882 97.5197933 21.6770882 97.2436052 24.2941112 95.2027536 24.2941112 95.4791517 21.6770882 91.3674145 21.6770882 91.5093941 20.3311129 95.6211313 20.3311129 96.3236783 13.6765825 98.3645298 13.6765825"></polygon>
                    <path d="M101.60744,19.3442666 L101.944537,16.1521013 L100.353777,16.1521013 L100.510249,14.6713401 L102.100798,14.6713401 L102.218415,13.5570542 L104.13934,13.5570542 L104.021723,14.6713401 L105.702585,14.6713401 L105.546114,16.1521013 L103.865252,16.1521013 L103.750786,17.2358301 L103.471447,19.882573 L103.162075,22.8135384 C103.137711,23.0431348 103.073022,23.2547319 102.967588,23.4489576 C102.861733,23.6433925 102.726055,23.8154329 102.560132,23.9650787 C102.394209,24.1145153 102.207073,24.2317204 101.997884,24.3162755 C101.788905,24.4010399 101.569215,24.4437361 101.339023,24.4437361 L99.7787179,24.4437361 L100.499957,23.1574098 L100.739811,23.1574098 C100.869608,23.1574098 100.984494,23.1126207 101.084258,23.0230425 C101.183602,22.9330457 101.2401,22.8237938 101.253751,22.6938217 L101.347004,21.8118531" id="Fill-17" fill="#FFFFFF"></path>
                    <g transform="translate(104.670713, 13.617038)">
                        <mask id="mask-2" fill="white">
                            <use xlink:href="#path-1"></use>
                        </mask>
                        <g id="Clip-20"></g>
                        <path d="M7.9172523,5.05426179 C7.76078071,5.49294383 7.45308826,5.99148421 6.99417495,6.54967363 C6.53484158,7.10807234 5.98183528,7.6562156 5.33494603,8.19473129 C5.72454979,8.4839768 6.12969568,8.74287456 6.55080378,8.97205244 C6.97149182,9.20164891 7.39238989,9.3611316 7.81349799,9.4507098 L7.66815793,10.8266143 C7.03534063,10.7567098 6.40630384,10.5748325 5.78230775,10.280564 C5.15810164,9.98692326 4.56897036,9.62044794 4.01491392,9.1815566 C3.36886478,9.62044794 2.69971246,9.98692326 2.00829707,10.280564 C1.31709171,10.5748325 0.647309306,10.7567098 0,10.8266143 L0.145340052,9.4507098 C0.584720671,9.3611316 1.03901335,9.20164891 1.50863814,8.97205244 C1.9780529,8.74287456 2.43822639,8.4839768 2.88894857,8.19473129 C2.43675619,7.73616624 2.05366333,7.26985727 1.73819981,6.79622298 C1.42294632,6.32300728 1.20241589,5.87679062 1.07681856,5.45820088 L2.78750458,5.45820088 C2.91331193,5.68737877 3.10044775,5.95402043 3.348702,6.25812587 C3.59632617,6.56244061 3.88784639,6.87889445 4.22347269,7.2074874 C4.78214977,6.74934093 5.24778401,6.31798421 5.62079547,5.9142544 C5.9935969,5.51031531 6.21349724,5.22399993 6.28175666,5.05426179 L0.969493756,5.05426179 L1.11462378,3.67877591 L3.59086541,3.67877591 L3.71247219,2.52723554 L1.23623056,2.52723554 L1.38157061,1.15133107 L3.85760221,1.15133107 L3.97920899,0 L5.80982155,0 L5.68821477,1.15133107 L8.32932915,1.15133107 L8.1839891,2.52723554 L5.54287472,2.52723554 L5.42126794,3.67877591 L8.06238232,3.67877591 L7.9172523,5.05426179 Z" id="Fill-19" fill="#FFFFFF" mask="url(#mask-2)"></path>
                    </g>
                    <path d="M95.2485189,15.7883468 L94.6350243,14.0928491 C94.5516428,13.9226923 94.4170142,13.8373 94.2307185,13.8373 L92.6947766,13.8140683 L93.814231,16.3461176 L93.2408519,16.3693494 C92.6489903,16.6016667 92.4521931,17.0658827 92.6506705,17.7628346 L93.1568403,19.9229669 L94.7394087,19.9461987 L94.2302984,17.925666 C94.1446066,17.7023484 94.1467069,17.4298465 94.6457358,17.4145679 C95.4866918,17.3214317 95.6874795,16.7797766 95.2485189,15.7883468" id="Fill-21" fill="#FFFFFF"></path>
                    <path d="M78.5268309,2.77635922 C78.4100548,2.44609192 78.2334204,2.14973039 77.9971378,1.8881118 C77.7606452,1.6269118 77.4670247,1.41531469 77.1162763,1.25373905 C76.7653179,1.09195412 76.3694133,1.01137559 75.9277223,1.01137559 L72.004171,1.01137559 L72.8869228,2.67673487 L73.9473591,2.67673487 L73.9477792,2.67275826 L75.6097385,2.67275826 C75.7309252,2.67275826 75.8500116,2.69368775 75.9665777,2.73617461 C76.0833538,2.77845217 76.1843777,2.84584512 76.2698595,2.93814416 C76.3553413,3.0302339 76.4189801,3.14576467 76.4603558,3.28410858 C76.5023616,3.42266178 76.5128631,3.58821402 76.4924903,3.780556 C76.4536349,4.14933356 76.3332883,4.43041657 76.1310304,4.62275856 C75.9289825,4.81489125 75.7023612,4.91116689 75.4513766,4.91116689 L73.7114966,4.91116689 L73.7119166,4.90719028 L71.5824328,4.90719028 L71.1289803,9.20275817 L73.2584641,9.20275817 L73.5373826,6.56061975 L75.4070605,6.56061975 C75.8485414,6.56061975 76.2591481,6.48380853 76.6388805,6.3301861 C77.0188229,6.17614507 77.3500386,5.96852456 77.6331576,5.70690598 C77.9160667,5.44570598 78.1464684,5.14934445 78.3239429,4.81865855 C78.5020475,4.48797266 78.6097924,4.14200824 78.6480176,3.780556 C78.6837226,3.44191691 78.643187,3.10746371 78.5268309,2.77635922" id="Fill-23" fill="#FFFFFF"></path>
                    <polygon id="Fill-25" fill="#FFFFFF" points="105.272278 18.7463949 99.8529002 20.8966904 100.009162 19.4159292 105.428539 17.2656337"></polygon>
                    <polygon id="Fill-27" fill="#FFFFFF" points="87.7043411 1.01139652 84.3867234 1.01139652 83.8091437 1.01139652 80.498877 1.01139652 80.3232928 2.67277919 83.1408315 2.67277919 82.4515164 9.2027791 84.5810002 9.2027791 85.1474483 3.83624937 83.4018975 2.67277919 85.2675849 2.67277919 85.819331 2.67277919 88.6213276 2.67277919"></polygon>
                    <polygon id="Fill-29" fill="#25CCB8" points="51.4207432 1.15154037 16.0449326 1.15154037 16.8180493 0 52.1938599 0"></polygon>
                    <g transform="translate(0.000000, 7.283796)">
                        <mask id="mask-4" fill="white">
                            <use xlink:href="#path-3"></use>
                        </mask>
                        <g id="Clip-32"></g>
                        <path d="M18.4087248,0 L12.4573437,0 L-0.000105014488,17.7161828 L10.9568967,17.7161828 L10.3476026,16.768077 C9.56755498,15.5539575 8.77700592,14.0074777 9.59653898,12.815962 L18.4087248,0 Z" id="Fill-31" fill="#FFFFFF" mask="url(#mask-4)"></path>
                    </g>
                    <g transform="translate(15.631533, 2.491676)">
                        <mask id="mask-6" fill="white">
                            <use xlink:href="#path-5"></use>
                        </mask>
                        <g id="Clip-34"></g>
                        <path d="M22.0912678,0 L22.9032398,0.594606722 C24.0575591,1.43534421 25.1478195,2.22940894 25.7659348,3.0837506 C26.4367673,4.01092687 26.4331968,4.87280314 25.7548033,5.7962121 L20.8913723,12.426255 C20.1808442,13.3299902 18.9143695,13.9063883 17.5859362,13.9304572 C16.4398081,13.9549447 15.4272584,13.561261 14.8423277,12.872053 L6.1160438,0 L0,0 L15.0576074,22.5084074 L19.9096968,22.5084074 L35.5041383,0 L22.0912678,0 Z" id="Fill-33" fill="#FFFFFF" mask="url(#mask-6)"></path>
                    </g>
                </g>
            </g>
        </g>
    </g>
</svg>